# xmcd CD database file
#
# Track frame offsets:
#	150
#	13920
#	26129
#	43003
#	54550
#	67882
#	80882
#	92477
#
# Disc length: 1396 seconds
#
# Revision: 3
# Processed by: cddbd v1.5.2PL0 Copyright (c) Steve Scherf et al.
# Submitted via: CDex 1.70beta2
#
DISCID=65057208
DTITLE=Various Artist - - To Neo Kyma_disc09
DYEAR=2007
DGENRE=New Wave
TTITLE0=POULOPOULOS - Thathela na xa
TTITLE1=ARLETA - O trelos tou xwriou
TTITLE2=ZOGRAFOS - Pou na xwresei to oneiro
TTITLE3=XOMATA - Taxa giati
TTITLE4=VIOLARIS - Ki an vgei o hlios dyo fores
TTITLE5=MAVILI - Panagi amou pws argei
TTITLE6=MITSIAS - Omorfes meres
TTITLE7=ASTERIADI, PAPPAS - Den einai t aspro to krasi mas
EXTD=YEAR: 2007
EXTT0=
EXTT1=
EXTT2=
EXTT3=
EXTT4=
EXTT5=
EXTT6=
EXTT7=
PLAYORDER=
